<svg xmlns="http://www.w3.org/2000/svg" id="Layer_2" data-name="Layer 2" viewBox="0 0 303.47 357.06"><defs><style>.cls-3{fill:none;stroke-linecap:round;stroke:#351904;stroke-linejoin:round}.cls-5{fill:#e59655}.cls-6{fill:#faddc0}.cls-7{fill:#351904}.cls-3{stroke-width:4px}</style></defs><g id="Layer_1-2" data-name="Layer 1"><g id="Full-Body"><g id="kargo_vertical" data-name="kargo vertical"><g id="kargo-kangaroo"><g id="fill"><path id="hat-fill" d="M154.64 38.46c-3.1-5.9-8.9-10-15.3-11.4-7.4-1.7-15.2-.1-21.9 3.4-3.7 1.9-7 4.5-10.1 7.3-.9.8-.7 1.9-.1 2.6.2.5.7 1 1.3 1.1 12.2 2.2 24.3 5.1 36.1 8.9.6.3 1.3.4 1.9 0 3.4-2.5 6.3-5.8 8.2-9.6.4-.8.4-1.7-.1-2.3Z" style="fill:#5fb7ff"/><path id="hat-brim-fill" d="M113.14 42.96c-10-3.4-20.5-5.5-31-6.2-5.3-.4-10.6-.4-15.8 0-2 .1-4.7-.1-6.4 1.3-2.1 1.7-1.1 4.3.5 5.9 3.9 3.7 8.5 6.5 13.4 8.5.4.5 1.1.7 1.9.5 10.8-3.7 29.43-7.34 36.4-6.1 2.4.8 3.4-3.1 1-3.9Z" style="fill:#3087c2"/><path id="tail-top-fur" d="M301.34 351.26c-17.6 0-38.9-6-54.5-14.6-15.4-8.6-28.9-21.1-38.7-36.2 3-1.3 5.9-2.9 8.4-5 1.5-1.2 2.8-2.6 4-4.3 3.8-5.5 4.3-12.6 4.5-19.2.3-7.2.5-14.7.6-22.2 5.9 26.9 18.4 52.4 36.3 73.3 9.7 11.6 22 21.3 36.6 25.3 2.4.7 3.3 1.8 2.8 2.9Z" class="cls-5"/><path id="tail-bottom-fur" d="M296.94 353.26c-20.2 2-40.8 2.6-60-4.1-16.4-5.8-31.4-15.8-42.8-29 .7-5.3 1.4-11.1 2.1-17.1 3.7.5 7.6-.7 11.1-2.2.3-.1.5-.2.8-.3 9.9 15.1 23.3 27.6 38.7 36.2 15.6 8.5 36.8 14.5 54.5 14.5-.4.9-1.9 1.7-4.4 2Z" class="cls-6"/><path id="right-side-fur" d="M208.14 300.46c-.3.1-.5.2-.8.3-3.5 1.5-7.4 2.7-11.1 2.2-.6 6-1.3 11.8-2.1 17.1-2.7 20.4-5.6 34.9-5.6 34.9h-83.4l8.2-15.7s-3.4-19.6-4.1-32.8v-.1c6.2.4 12.4.3 18.5-.3v-.5c24-11.9 27.28-41.55 26.38-52.05-3.2-37.2-6.61-62.73-22.48-96.95-15.87-34.21-47.5-55-81.9-69.1-.1 0-.2-.1-.3-.1-14.8-4.4-30.9-4.2-45.6.5-.3.1-.6.3-.7.5l-.6-.2c.2-.4.6-.7 1-.9 15.21-8.82 35.37-12.17 51.97-19.5 9.37-4.14 14.27-13.28 24.73-16.2 4.2-1.2 8.3-2.1 12.3-2.8 15.2-2.8 29.5-2.5 44.2 0 3.4.6 6.8 1.2 10.2 2 4.7-5.8 12.1-14.7 17.1-19.7 4.8-4.8 12.57-15.05 27.25-18.87 14.68-3.82 19.18 6.46 18.02 13.24-1.17 6.78-11.31 22.68-41.44 36 20 10.77 26.77 28.86 32.06 37.87 5.3 9.01 23.67 86.82 25.61 150.46-.1 7.5-.1 14.9-.5 22.2-.3 6.7-.8 13.7-4.5 19.2-1.2 1.7-2.5 3.1-4 4.3-2.5 2.1-5.4 3.7-8.4 5Z" class="cls-5"/><path id="left-leg-fur" d="m113.34 339.36-8.2 15.7h-61.4l5.9-11.5c-3.6-16.6-7.5-33.2-10.8-50-.8-4.2-1.6-8.5-2.3-12.7-2.2-13.4-3.8-26.9-4.2-40.4-.4-12.8.4-25.6 2.1-38.4.3 16.9.6 33.9 5 50.2 4.4 16.5 13.5 32.4 27.8 41.6 17.7 11.4 39.6 13.7 60.5 12.2-6.2.7-12.4.8-18.5.4.7 13.3 4.1 32.9 4.1 32.9Z" class="cls-5"/><path id="belly-fur" d="M25.34 100.86c8.9 0 9.5-8.91 15.4-15.71.4-.47 1.63-.14 3.69.97 20.67 4.15 36.45 9.07 47.34 14.76 25.39 13.28 37.42 35.53 45.52 54.14 15.54 35.69 25.67 60.56 24.2 97.94-1.08 27.37-7.22 37.25-14.27 44.64s-23.57 8.9-26.07 9.1c0 0-5.38 1.66-24.05-1.14-18.68-2.8-21.75-4.22-33.33-12-14.27-9.58-20.01-24.8-24.41-41.3-4.4-16.3-4.7-33.3-5-50.2 1.2-8.7 2.8-17.3 4.8-25.9 2.8-12 7.15-26.7 11.35-38.2-11.75-4.53-26.92-8.74-32.02-15.34-8.12-10.4-18.15-20.06-16.35-33.36.1-.5.2-.9.5-1.2l.6.2c-.3.5-.4 1.2.1 1.8 5.3 6.7 13.1 10.8 21.8 10.8h.2Z" class="cls-6"/><path id="left-ear-fill" d="M141.29 19.75c2.09-5.64 3.27-13.15-2.15-15.67-4.2-1.95-10.81.2-19.84 6.46-6.46 7.45-11.96 17.4-16.49 29.83 2.7.4-1.17-.8 1.33 0 3-4.5 7.8-7.7 13.5-10.2 8.5-3.7 12.8-5.15 21.5-2.15.7-2.5 1.27-5.89 2.15-8.27Z" class="cls-5"/><path id="left-arm-fill" d="M34.34 202.16c-1.7 12.7-2.4 25.6-2.1 38.4.27 9 2.47 26.7 6.6 53.1-10.16-2.68-12.1-18.8-13.2-23-2.4-13.6-1.6-27.8.9-41.4 3.3-18.2 7.3-35.1 12.5-52.9-1.9 8.4-3.5 17.1-4.7 25.8Z" class="cls-5"/></g><g id="outline"><path id="face" d="M85.11 137.96c-12.27 1.06-23.81.78-34.62-.84-34.66-5.2-50.15-34.46-48.35-47.76.1-.5.2-.9.5-1.2.2-.4.6-.7 1-.9 23.8-13.8 35.49-12.56 51.87-19.5 3.87-1.64 15.96-15.8 34.36-19.6 14.26-3.62 29.6-3.16 57.63 4.4" class="cls-3"/><path id="smile" d="M13.16 116.8c6.72 5.27 20.52 8.04 28.43 8.04s28.07.77 33.84-6.72" class="cls-3"/><path id="philtrum" d="M20.36 100.76c.1 1 .97 10.96 7.47 21.91" class="cls-3"/><path id="back" d="M168.72 61.43c31.88 15.47 50.86 78.24 56.92 188.33-.1 7.5-.2 14.9-.6 22.2-.3 6.7-.8 13.7-4.5 19.2-1.1 1.6-2.5 3-4 4.3-2.5 2.1-5.4 3.7-8.4 5-.3.1-.5.2-.8.4-3.5 1.5-7.4 2.7-11.1 2.2-.6-.1-1.2-.2-1.8-.4-6-1.9-7.6-6.7-8.2-14.6-.3-3.4-.4-7.4-.6-12" class="cls-3"/><path id="right-arm" d="m173.54 201.36.9 82.8c0 3.2.2 6.6 2.3 9 2.1 2.3 7.2 1.7 9.5-5.1" class="cls-3"/><path id="right-finger-L" d="M199.14 302.76c.5-8.9.3-17.6-.4-26.7" class="cls-3"/><path id="right-finger-M" d="M208.24 299.86c.8-6.1.7-15.2.3-22.8" class="cls-3"/><path id="right-finger-R" d="M216.54 295.46c1-5.7 1.4-11.8 1.3-17.6" class="cls-3"/><path id="body-outline" d="M196.14 303.06c-.6 6-1.3 11.8-2.1 17.1-2.7 20.4-5.6 34.9-5.6 34.9H43.64l5.9-11.5c-3.6-16.6-7.5-33.2-10.8-50-.8-4.2-1.6-8.5-2.3-12.7-2.2-13.4-3.8-26.9-4.2-40.4-.4-12.8.4-25.6 2.1-38.4 1.2-8.7 2.8-17.3 4.8-25.9 2.8-12 7.15-26.7 11.35-38.2" class="cls-3"/><path id="inner-leg" d="m105.14 355.06 8.2-15.7s-3.4-19.6-4.1-32.8" class="cls-3"/><path id="bottom-belly" d="M75.33 301.34c10.78 5.12 22.01 4.88 33.91 5.12s25-.73 32.99-5.12" class="cls-3"/><path id="pouch-top" d="M58.75 227.96c18.5 5.55 42.17 6.73 71 3.54" class="cls-3"/><path id="pouch-bottom" d="M74.79 239.35c9.92 2.23 19.47 2.89 28.65 1.98" class="cls-3"/><path id="tail" d="M225.54 249.76c5.9 26.9 18.4 52.4 36.3 73.3 9.8 11.5 22.1 21.3 36.7 25.2 2.4.7 3.3 1.8 2.8 2.9-.4.9-1.9 1.7-4.4 2-20.2 2-40.8 2.6-60-4.1-16.4-5.8-31.4-15.8-42.8-29" class="cls-3"/><path id="left-hand" d="M25.74 270.56c.8 4.5 2 9 3.6 13.4 1.6 4.3 3.8 8.7 9.5 9.7" class="cls-3"/><path id="left-arm" d="M39.14 176.26c-5.2 17.8-9.2 34.6-12.5 52.9-2.5 13.6-3.3 27.8-.9 41.4" class="cls-3"/><path id="left-hand-thumb" d="M25.74 270.56h0c1.1 4.2 2.7 7.8 5 9.8 1.5 1.2 3.8 2 5.3.7" class="cls-3"/><path id="left-ear" d="M102.81 38.5c4.22-21.98 24.69-40.77 34.48-35.66 9.79 5.11 4.62 15.44 1.85 23.53" class="cls-3"/><path id="left-toe-L" d="m55.74 353.96 5.1-7.5" class="cls-3"/><path id="left-toe-R" d="M68.44 354.66c1.4-2.6 2.8-5.1 4.2-7.7" class="cls-3"/><path id="right-toe-L" d="M118.84 354.46c1.1-3.2 2.6-6.3 4.6-9.1" class="cls-3"/><path id="right-toe-R" d="M134.24 354.66c.7-3.5 2.1-7 4.2-9.9" class="cls-3"/><path id="hat-brim" d="M147.51 52.56c-28.79-9.96-55.57-16.6-82.87-16-2.9.1-6.7 1.1-6.7 4 0 1.6 1.4 2.9 2.6 3.9 4.2 3.3 9.6 6.93 14.5 9.03" class="cls-3"/><path id="hat" d="M103.26 40.13c7.1-6.7 17.28-12.16 26.98-13.16s19.9 2.5 25.9 10.2" class="cls-3"/><path id="right-ear-fold" d="M165.86 46.09c6.6-2.15 12.86-5.36 18.8-9.63 5.93-4.27 10.11-7.63 12.53-10.08" style="stroke-linejoin:round;stroke:#351904;fill:none;stroke-linecap:round;stroke-width:3px"/><path id="right-ear" d="M147.51 52.56c1.72-3.48 7.24-10.65 16.53-21.5 13.95-16.28 29.64-24.04 40.39-18.86 5.14 2.48 13.57 18.86-19.77 40.84-4.33 2.85-9.64 5.65-15.94 8.39" class="cls-3"/><path id="dimple" d="M74.28 115.37c1.55.63 2.81 1.85 3.77 3.66" style="stroke-width:4px;stroke:#351904;fill:none;stroke-linecap:round"/></g><path id="nose" d="M3.14 90.16c-.4-.5-.23-1.86.6-2.3 5.19-2.72 22.8-5.06 38.57-1.2 1.98.48 2.37 2.77 1.99 3.5-3.94 7.55-10.84 10.31-19.16 10.7s-16.5-4-22-10.7Z" style="stroke-width:4px;fill:#351904;stroke:#351904"/><path id="right-eye" d="M92.39 73.79c-1.57-1.88 0-7.51 2.97-7.51s4.17 3 3.17 5.53c-1 2.53-4.57 3.87-6.14 1.99Z" class="cls-7"/><path id="left-eye" d="M76.79 61.53c-3.32 1.4-3.74 6.09-1.87 7.52 1.87 1.43 3.89.89 5.57-1.7 1.68-2.59-.38-7.22-3.7-5.82Z" class="cls-7"/></g></g></g></g></svg>